<?xml version="1.0" standalone="no"?><!DOCTYPE svg PUBLIC "-//W3C//DTD SVG 1.1//EN" "http://www.w3.org/Graphics/SVG/1.1/DTD/svg11.dtd"><svg t="1590378247889" class="icon" viewBox="0 0 1024 1024" version="1.1" xmlns="http://www.w3.org/2000/svg" p-id="1855" xmlns:xlink="http://www.w3.org/1999/xlink" width="200" height="200"><defs><style type="text/css"></style></defs><path d="M512 64a448 448 0 1 0 0 896A448 448 0 0 0 512 64z m0 836.288c-37.632 0-84.8-59.776-116.48-155.904a896 896 0 0 1 122.432-8.384c36.992 0.256 73.856 2.56 110.528 7.168-31.04 99.776-78.848 157.12-116.48 157.12z m5.952-224c-45.952 0-91.84 3.2-137.344 9.536-10.24-47.36-16.064-95.552-17.344-144h298.688c-1.472 48-7.04 95.808-16.768 142.784a964.096 964.096 0 0 0-127.232-8.32zM618.944 252.16c-33.92 3.84-68.032 5.824-102.144 5.952-37.12 0.064-74.24-2.304-111.104-7.168C436.736 169.728 478.528 123.712 512 123.712c33.472 0 75.84 46.592 106.88 128.448z m12.544-109.888a380.48 380.48 0 0 1 137.984 78.208c-28.864 9.856-58.432 17.408-88.448 22.72a429.44 429.44 0 0 0-49.536-100.928z m7.168 167.808c14.272 56.32 22.272 113.984 23.872 172.032H363.84c1.6-58.432 9.6-116.48 23.936-173.184 42.88 6.08 86.208 9.024 129.6 8.96a980.8 980.8 0 0 0 119.488-7.808h1.792zM345.344 241.408a590.144 590.144 0 0 1-86.592-23.296 393.6 393.6 0 0 1 133.76-75.84 426.496 426.496 0 0 0-47.168 99.136z m-17.28 59.712a896 896 0 0 0-24.512 180.992h-179.2a379.328 379.328 0 0 1 88.96-217.408c37.12 15.04 75.52 26.688 114.688 34.624v1.792z m-24.512 240.768c1.408 51.968 7.424 103.744 17.92 154.688a577.6 577.6 0 0 0-124.864 41.216 385.28 385.28 0 0 1-71.04-195.904h177.92z m418.112 0h179.2a386.496 386.496 0 0 1-68.096 191.744c-40.96-17.472-83.584-30.72-127.232-39.424 9.152-50.304 14.144-101.248 14.912-152.32h1.216z m0-59.776a878.72 878.72 0 0 0-23.872-179.2 621.248 621.248 0 0 0 112.896-35.84A385.92 385.92 0 0 1 896 482.112h-174.4z m-483.84 302.848a544.768 544.768 0 0 1 99.776-30.464c13.12 45.312 33.28 88.256 59.712 127.232a380.48 380.48 0 0 1-160.64-96.768h1.152z m393.6 96.768a458.176 458.176 0 0 0 59.776-130.816 617.6 617.6 0 0 1 101.568 30.464 384.064 384.064 0 0 1-161.28 100.352z" p-id="1856"></path></svg>